<mxfile host="app.diagrams.net" modified="2023-11-08T22:12:11.055Z" agent="Mozilla/5.0 (Windows NT 10.0; Win64; x64) AppleWebKit/537.36 (KHTML, like Gecko) Chrome/119.0.0.0 Safari/537.36" etag="1Yd6yQGHgl_ipxviVEhA" version="22.0.8" type="github">
  <diagram id="prtHgNgQTEPvFCAcTncT" name="Page-1">
    <mxGraphModel dx="2048" dy="737" grid="0" gridSize="10" guides="1" tooltips="1" connect="1" arrows="1" fold="1" page="1" pageScale="1" pageWidth="827" pageHeight="1169" math="0" shadow="0">
      <root>
        <mxCell id="0" />
        <mxCell id="1" parent="0" />
        <mxCell id="Xi8EoUIkKsaDlYo5rsmm-3" value="" style="edgeStyle=orthogonalEdgeStyle;rounded=0;orthogonalLoop=1;jettySize=auto;html=1;" edge="1" parent="1" source="Xi8EoUIkKsaDlYo5rsmm-1" target="Xi8EoUIkKsaDlYo5rsmm-2">
          <mxGeometry relative="1" as="geometry" />
        </mxCell>
        <mxCell id="Xi8EoUIkKsaDlYo5rsmm-1" value="поиск" style="rounded=1;whiteSpace=wrap;html=1;" vertex="1" parent="1">
          <mxGeometry x="340" y="60" width="120" height="60" as="geometry" />
        </mxCell>
        <mxCell id="Xi8EoUIkKsaDlYo5rsmm-2" value="информация о продукте" style="rounded=1;whiteSpace=wrap;html=1;" vertex="1" parent="1">
          <mxGeometry x="340" y="200" width="120" height="60" as="geometry" />
        </mxCell>
        <mxCell id="Xi8EoUIkKsaDlYo5rsmm-7" style="edgeStyle=orthogonalEdgeStyle;rounded=0;orthogonalLoop=1;jettySize=auto;html=1;exitX=0;exitY=0.5;exitDx=0;exitDy=0;entryX=1;entryY=0.5;entryDx=0;entryDy=0;" edge="1" parent="1" source="Xi8EoUIkKsaDlYo5rsmm-4" target="Xi8EoUIkKsaDlYo5rsmm-2">
          <mxGeometry relative="1" as="geometry" />
        </mxCell>
        <mxCell id="Xi8EoUIkKsaDlYo5rsmm-4" value="главное меню" style="rounded=1;whiteSpace=wrap;html=1;" vertex="1" parent="1">
          <mxGeometry x="524" y="60" width="120" height="60" as="geometry" />
        </mxCell>
        <mxCell id="Xi8EoUIkKsaDlYo5rsmm-9" style="edgeStyle=orthogonalEdgeStyle;rounded=0;orthogonalLoop=1;jettySize=auto;html=1;exitX=0.5;exitY=1;exitDx=0;exitDy=0;entryX=0;entryY=0.5;entryDx=0;entryDy=0;" edge="1" parent="1" source="Xi8EoUIkKsaDlYo5rsmm-8" target="Xi8EoUIkKsaDlYo5rsmm-2">
          <mxGeometry relative="1" as="geometry" />
        </mxCell>
        <mxCell id="Xi8EoUIkKsaDlYo5rsmm-8" value="Просмотр категорий" style="rounded=1;whiteSpace=wrap;html=1;" vertex="1" parent="1">
          <mxGeometry x="140" y="60" width="120" height="60" as="geometry" />
        </mxCell>
        <mxCell id="Xi8EoUIkKsaDlYo5rsmm-10" value="добавить в корзину" style="rounded=1;whiteSpace=wrap;html=1;" vertex="1" parent="1">
          <mxGeometry x="200" y="320" width="120" height="60" as="geometry" />
        </mxCell>
        <mxCell id="Xi8EoUIkKsaDlYo5rsmm-15" style="edgeStyle=orthogonalEdgeStyle;rounded=0;orthogonalLoop=1;jettySize=auto;html=1;exitX=0.5;exitY=1;exitDx=0;exitDy=0;entryX=0.5;entryY=0;entryDx=0;entryDy=0;" edge="1" parent="1" source="Xi8EoUIkKsaDlYo5rsmm-11" target="Xi8EoUIkKsaDlYo5rsmm-13">
          <mxGeometry relative="1" as="geometry" />
        </mxCell>
        <mxCell id="Xi8EoUIkKsaDlYo5rsmm-11" value="Заполнить заказ" style="rounded=1;whiteSpace=wrap;html=1;" vertex="1" parent="1">
          <mxGeometry x="450" y="320" width="120" height="60" as="geometry" />
        </mxCell>
        <mxCell id="Xi8EoUIkKsaDlYo5rsmm-12" style="edgeStyle=orthogonalEdgeStyle;rounded=0;orthogonalLoop=1;jettySize=auto;html=1;exitX=0.25;exitY=1;exitDx=0;exitDy=0;entryX=1.003;entryY=0.639;entryDx=0;entryDy=0;entryPerimeter=0;" edge="1" parent="1" source="Xi8EoUIkKsaDlYo5rsmm-2" target="Xi8EoUIkKsaDlYo5rsmm-10">
          <mxGeometry relative="1" as="geometry" />
        </mxCell>
        <mxCell id="Xi8EoUIkKsaDlYo5rsmm-13" value="Подтвердите заказ" style="rounded=1;whiteSpace=wrap;html=1;" vertex="1" parent="1">
          <mxGeometry x="340" y="460" width="120" height="60" as="geometry" />
        </mxCell>
        <mxCell id="Xi8EoUIkKsaDlYo5rsmm-14" style="edgeStyle=orthogonalEdgeStyle;rounded=0;orthogonalLoop=1;jettySize=auto;html=1;exitX=0.75;exitY=1;exitDx=0;exitDy=0;entryX=-0.008;entryY=0.628;entryDx=0;entryDy=0;entryPerimeter=0;" edge="1" parent="1" source="Xi8EoUIkKsaDlYo5rsmm-2" target="Xi8EoUIkKsaDlYo5rsmm-11">
          <mxGeometry relative="1" as="geometry" />
        </mxCell>
        <mxCell id="Xi8EoUIkKsaDlYo5rsmm-19" style="edgeStyle=orthogonalEdgeStyle;rounded=0;orthogonalLoop=1;jettySize=auto;html=1;exitX=0.5;exitY=1;exitDx=0;exitDy=0;entryX=0.5;entryY=0;entryDx=0;entryDy=0;" edge="1" parent="1" source="Xi8EoUIkKsaDlYo5rsmm-16" target="Xi8EoUIkKsaDlYo5rsmm-17">
          <mxGeometry relative="1" as="geometry" />
        </mxCell>
        <mxCell id="Xi8EoUIkKsaDlYo5rsmm-16" value="товар" style="rounded=1;whiteSpace=wrap;html=1;" vertex="1" parent="1">
          <mxGeometry x="93" y="628" width="120" height="43" as="geometry" />
        </mxCell>
        <mxCell id="Xi8EoUIkKsaDlYo5rsmm-20" style="edgeStyle=orthogonalEdgeStyle;rounded=0;orthogonalLoop=1;jettySize=auto;html=1;exitX=0.5;exitY=1;exitDx=0;exitDy=0;shape=link;" edge="1" parent="1" source="Xi8EoUIkKsaDlYo5rsmm-17" target="Xi8EoUIkKsaDlYo5rsmm-18">
          <mxGeometry relative="1" as="geometry" />
        </mxCell>
        <mxCell id="Xi8EoUIkKsaDlYo5rsmm-17" value="тип" style="rounded=1;whiteSpace=wrap;html=1;" vertex="1" parent="1">
          <mxGeometry x="93" y="702" width="120" height="43" as="geometry" />
        </mxCell>
        <mxCell id="Xi8EoUIkKsaDlYo5rsmm-18" value="Подтип" style="rounded=1;whiteSpace=wrap;html=1;" vertex="1" parent="1">
          <mxGeometry x="93" y="772" width="120" height="43" as="geometry" />
        </mxCell>
        <mxCell id="Xi8EoUIkKsaDlYo5rsmm-24" value="" style="edgeStyle=orthogonalEdgeStyle;rounded=0;orthogonalLoop=1;jettySize=auto;html=1;" edge="1" parent="1" source="Xi8EoUIkKsaDlYo5rsmm-22" target="Xi8EoUIkKsaDlYo5rsmm-23">
          <mxGeometry relative="1" as="geometry" />
        </mxCell>
        <mxCell id="Xi8EoUIkKsaDlYo5rsmm-22" value="Год" style="rounded=1;whiteSpace=wrap;html=1;" vertex="1" parent="1">
          <mxGeometry x="284" y="628" width="120" height="43" as="geometry" />
        </mxCell>
        <mxCell id="Xi8EoUIkKsaDlYo5rsmm-28" value="" style="edgeStyle=orthogonalEdgeStyle;rounded=0;orthogonalLoop=1;jettySize=auto;html=1;shape=link;" edge="1" parent="1" source="Xi8EoUIkKsaDlYo5rsmm-23" target="Xi8EoUIkKsaDlYo5rsmm-27">
          <mxGeometry relative="1" as="geometry" />
        </mxCell>
        <mxCell id="Xi8EoUIkKsaDlYo5rsmm-23" value="Новый продукт" style="rounded=1;whiteSpace=wrap;html=1;" vertex="1" parent="1">
          <mxGeometry x="284" y="704" width="120" height="43" as="geometry" />
        </mxCell>
        <mxCell id="Xi8EoUIkKsaDlYo5rsmm-27" value="Десять лучших продуктов года" style="rounded=1;whiteSpace=wrap;html=1;" vertex="1" parent="1">
          <mxGeometry x="284" y="784" width="120" height="43" as="geometry" />
        </mxCell>
        <mxCell id="Xi8EoUIkKsaDlYo5rsmm-38" value="" style="edgeStyle=orthogonalEdgeStyle;rounded=0;orthogonalLoop=1;jettySize=auto;html=1;" edge="1" parent="1" source="Xi8EoUIkKsaDlYo5rsmm-29" target="Xi8EoUIkKsaDlYo5rsmm-37">
          <mxGeometry relative="1" as="geometry" />
        </mxCell>
        <mxCell id="Xi8EoUIkKsaDlYo5rsmm-29" value="страна" style="rounded=1;whiteSpace=wrap;html=1;" vertex="1" parent="1">
          <mxGeometry x="475" y="628" width="120" height="43" as="geometry" />
        </mxCell>
        <mxCell id="Xi8EoUIkKsaDlYo5rsmm-32" value="" style="edgeStyle=orthogonalEdgeStyle;rounded=0;orthogonalLoop=1;jettySize=auto;html=1;" edge="1" parent="1" source="Xi8EoUIkKsaDlYo5rsmm-30" target="Xi8EoUIkKsaDlYo5rsmm-31">
          <mxGeometry relative="1" as="geometry" />
        </mxCell>
        <mxCell id="Xi8EoUIkKsaDlYo5rsmm-30" value="счет" style="rounded=1;whiteSpace=wrap;html=1;" vertex="1" parent="1">
          <mxGeometry x="666" y="626" width="120" height="43" as="geometry" />
        </mxCell>
        <mxCell id="Xi8EoUIkKsaDlYo5rsmm-34" value="" style="edgeStyle=orthogonalEdgeStyle;rounded=0;orthogonalLoop=1;jettySize=auto;html=1;shape=link;" edge="1" parent="1" source="Xi8EoUIkKsaDlYo5rsmm-31" target="Xi8EoUIkKsaDlYo5rsmm-33">
          <mxGeometry relative="1" as="geometry" />
        </mxCell>
        <mxCell id="Xi8EoUIkKsaDlYo5rsmm-31" value="Популярность" style="rounded=1;whiteSpace=wrap;html=1;" vertex="1" parent="1">
          <mxGeometry x="666" y="749" width="120" height="43" as="geometry" />
        </mxCell>
        <mxCell id="Xi8EoUIkKsaDlYo5rsmm-36" value="" style="edgeStyle=orthogonalEdgeStyle;rounded=0;orthogonalLoop=1;jettySize=auto;html=1;shape=link;" edge="1" parent="1" source="Xi8EoUIkKsaDlYo5rsmm-33" target="Xi8EoUIkKsaDlYo5rsmm-35">
          <mxGeometry relative="1" as="geometry" />
        </mxCell>
        <mxCell id="Xi8EoUIkKsaDlYo5rsmm-33" value="цена" style="rounded=1;whiteSpace=wrap;html=1;" vertex="1" parent="1">
          <mxGeometry x="666" y="872" width="120" height="43" as="geometry" />
        </mxCell>
        <mxCell id="Xi8EoUIkKsaDlYo5rsmm-35" value="Комментарий" style="rounded=1;whiteSpace=wrap;html=1;" vertex="1" parent="1">
          <mxGeometry x="666" y="995" width="120" height="43" as="geometry" />
        </mxCell>
        <mxCell id="Xi8EoUIkKsaDlYo5rsmm-40" value="" style="edgeStyle=orthogonalEdgeStyle;rounded=0;orthogonalLoop=1;jettySize=auto;html=1;shape=link;" edge="1" parent="1" source="Xi8EoUIkKsaDlYo5rsmm-37" target="Xi8EoUIkKsaDlYo5rsmm-39">
          <mxGeometry relative="1" as="geometry" />
        </mxCell>
        <mxCell id="Xi8EoUIkKsaDlYo5rsmm-37" value="Русский" style="rounded=1;whiteSpace=wrap;html=1;" vertex="1" parent="1">
          <mxGeometry x="475" y="751" width="120" height="43" as="geometry" />
        </mxCell>
        <mxCell id="Xi8EoUIkKsaDlYo5rsmm-39" value="иностранный" style="rounded=1;whiteSpace=wrap;html=1;" vertex="1" parent="1">
          <mxGeometry x="475" y="874" width="120" height="43" as="geometry" />
        </mxCell>
        <mxCell id="Xi8EoUIkKsaDlYo5rsmm-64" style="edgeStyle=orthogonalEdgeStyle;rounded=0;orthogonalLoop=1;jettySize=auto;html=1;exitX=0.5;exitY=0.5;exitDx=0;exitDy=0;exitPerimeter=0;entryX=0;entryY=0.5;entryDx=0;entryDy=0;" edge="1" parent="1" source="Xi8EoUIkKsaDlYo5rsmm-44" target="Xi8EoUIkKsaDlYo5rsmm-51">
          <mxGeometry relative="1" as="geometry" />
        </mxCell>
        <mxCell id="Xi8EoUIkKsaDlYo5rsmm-44" value="обычный пользователь" style="shape=umlActor;verticalLabelPosition=bottom;verticalAlign=top;html=1;" vertex="1" parent="1">
          <mxGeometry x="63" y="1274.5" width="30" height="60" as="geometry" />
        </mxCell>
        <mxCell id="Xi8EoUIkKsaDlYo5rsmm-80" style="edgeStyle=orthogonalEdgeStyle;rounded=0;orthogonalLoop=1;jettySize=auto;html=1;exitX=0.5;exitY=0.5;exitDx=0;exitDy=0;exitPerimeter=0;entryX=0;entryY=0.5;entryDx=0;entryDy=0;" edge="1" parent="1" source="Xi8EoUIkKsaDlYo5rsmm-45" target="Xi8EoUIkKsaDlYo5rsmm-67">
          <mxGeometry relative="1" as="geometry" />
        </mxCell>
        <mxCell id="Xi8EoUIkKsaDlYo5rsmm-45" value="VIP" style="shape=umlActor;verticalLabelPosition=bottom;verticalAlign=top;html=1;" vertex="1" parent="1">
          <mxGeometry x="64" y="1492.5" width="30" height="60" as="geometry" />
        </mxCell>
        <mxCell id="Xi8EoUIkKsaDlYo5rsmm-85" style="edgeStyle=orthogonalEdgeStyle;rounded=0;orthogonalLoop=1;jettySize=auto;html=1;exitX=0.5;exitY=0.5;exitDx=0;exitDy=0;exitPerimeter=0;entryX=0;entryY=0.5;entryDx=0;entryDy=0;" edge="1" parent="1" source="Xi8EoUIkKsaDlYo5rsmm-48" target="Xi8EoUIkKsaDlYo5rsmm-82">
          <mxGeometry relative="1" as="geometry" />
        </mxCell>
        <mxCell id="Xi8EoUIkKsaDlYo5rsmm-87" style="edgeStyle=orthogonalEdgeStyle;rounded=0;orthogonalLoop=1;jettySize=auto;html=1;exitX=0.5;exitY=0.5;exitDx=0;exitDy=0;exitPerimeter=0;" edge="1" parent="1" source="Xi8EoUIkKsaDlYo5rsmm-48" target="Xi8EoUIkKsaDlYo5rsmm-83">
          <mxGeometry relative="1" as="geometry" />
        </mxCell>
        <mxCell id="Xi8EoUIkKsaDlYo5rsmm-88" style="edgeStyle=orthogonalEdgeStyle;rounded=0;orthogonalLoop=1;jettySize=auto;html=1;exitX=0.5;exitY=0.5;exitDx=0;exitDy=0;exitPerimeter=0;entryX=0;entryY=0.5;entryDx=0;entryDy=0;" edge="1" parent="1" source="Xi8EoUIkKsaDlYo5rsmm-48" target="Xi8EoUIkKsaDlYo5rsmm-84">
          <mxGeometry relative="1" as="geometry" />
        </mxCell>
        <mxCell id="Xi8EoUIkKsaDlYo5rsmm-48" value="администратор" style="shape=umlActor;verticalLabelPosition=bottom;verticalAlign=top;html=1;" vertex="1" parent="1">
          <mxGeometry x="64" y="1690" width="30" height="60" as="geometry" />
        </mxCell>
        <mxCell id="Xi8EoUIkKsaDlYo5rsmm-53" value="" style="edgeStyle=orthogonalEdgeStyle;rounded=0;orthogonalLoop=1;jettySize=auto;html=1;" edge="1" parent="1" source="Xi8EoUIkKsaDlYo5rsmm-51" target="Xi8EoUIkKsaDlYo5rsmm-52">
          <mxGeometry relative="1" as="geometry" />
        </mxCell>
        <mxCell id="Xi8EoUIkKsaDlYo5rsmm-51" value="Поиск продуктов" style="rounded=1;whiteSpace=wrap;html=1;" vertex="1" parent="1">
          <mxGeometry x="205" y="1289" width="120" height="31" as="geometry" />
        </mxCell>
        <mxCell id="Xi8EoUIkKsaDlYo5rsmm-58" style="edgeStyle=orthogonalEdgeStyle;rounded=0;orthogonalLoop=1;jettySize=auto;html=1;exitX=0.75;exitY=0;exitDx=0;exitDy=0;entryX=0;entryY=0.5;entryDx=0;entryDy=0;" edge="1" parent="1" source="Xi8EoUIkKsaDlYo5rsmm-52" target="Xi8EoUIkKsaDlYo5rsmm-55">
          <mxGeometry relative="1" as="geometry" />
        </mxCell>
        <mxCell id="Xi8EoUIkKsaDlYo5rsmm-61" style="edgeStyle=orthogonalEdgeStyle;rounded=0;orthogonalLoop=1;jettySize=auto;html=1;exitX=0.75;exitY=1;exitDx=0;exitDy=0;entryX=0;entryY=0.5;entryDx=0;entryDy=0;" edge="1" parent="1" source="Xi8EoUIkKsaDlYo5rsmm-52" target="Xi8EoUIkKsaDlYo5rsmm-54">
          <mxGeometry relative="1" as="geometry" />
        </mxCell>
        <mxCell id="Xi8EoUIkKsaDlYo5rsmm-52" value="Посмотреть описание продукта" style="rounded=1;whiteSpace=wrap;html=1;" vertex="1" parent="1">
          <mxGeometry x="405" y="1289" width="120" height="31" as="geometry" />
        </mxCell>
        <mxCell id="Xi8EoUIkKsaDlYo5rsmm-60" style="edgeStyle=orthogonalEdgeStyle;rounded=0;orthogonalLoop=1;jettySize=auto;html=1;exitX=1;exitY=0.5;exitDx=0;exitDy=0;entryX=0;entryY=0.5;entryDx=0;entryDy=0;" edge="1" parent="1" source="Xi8EoUIkKsaDlYo5rsmm-54" target="Xi8EoUIkKsaDlYo5rsmm-57">
          <mxGeometry relative="1" as="geometry" />
        </mxCell>
        <mxCell id="Xi8EoUIkKsaDlYo5rsmm-54" value="Добавить товары в корзину" style="rounded=1;whiteSpace=wrap;html=1;" vertex="1" parent="1">
          <mxGeometry x="557" y="1364" width="120" height="31" as="geometry" />
        </mxCell>
        <mxCell id="Xi8EoUIkKsaDlYo5rsmm-59" style="edgeStyle=orthogonalEdgeStyle;rounded=0;orthogonalLoop=1;jettySize=auto;html=1;exitX=1;exitY=0.5;exitDx=0;exitDy=0;entryX=0;entryY=0.5;entryDx=0;entryDy=0;" edge="1" parent="1" source="Xi8EoUIkKsaDlYo5rsmm-55" target="Xi8EoUIkKsaDlYo5rsmm-57">
          <mxGeometry relative="1" as="geometry" />
        </mxCell>
        <mxCell id="Xi8EoUIkKsaDlYo5rsmm-55" value="Обзор продуктов" style="rounded=1;whiteSpace=wrap;html=1;" vertex="1" parent="1">
          <mxGeometry x="557" y="1232" width="120" height="31" as="geometry" />
        </mxCell>
        <mxCell id="Xi8EoUIkKsaDlYo5rsmm-57" value="Оплата" style="rounded=1;whiteSpace=wrap;html=1;" vertex="1" parent="1">
          <mxGeometry x="731" y="1292.5" width="120" height="31" as="geometry" />
        </mxCell>
        <mxCell id="Xi8EoUIkKsaDlYo5rsmm-62" style="edgeStyle=orthogonalEdgeStyle;rounded=0;orthogonalLoop=1;jettySize=auto;html=1;exitX=0.5;exitY=0;exitDx=0;exitDy=0;entryX=0.564;entryY=-0.022;entryDx=0;entryDy=0;entryPerimeter=0;" edge="1" parent="1" source="Xi8EoUIkKsaDlYo5rsmm-51" target="Xi8EoUIkKsaDlYo5rsmm-55">
          <mxGeometry relative="1" as="geometry" />
        </mxCell>
        <mxCell id="Xi8EoUIkKsaDlYo5rsmm-66" value="" style="edgeStyle=orthogonalEdgeStyle;rounded=0;orthogonalLoop=1;jettySize=auto;html=1;" edge="1" parent="1" source="Xi8EoUIkKsaDlYo5rsmm-67" target="Xi8EoUIkKsaDlYo5rsmm-70">
          <mxGeometry relative="1" as="geometry" />
        </mxCell>
        <mxCell id="Xi8EoUIkKsaDlYo5rsmm-67" value="Поиск продуктов" style="rounded=1;whiteSpace=wrap;html=1;" vertex="1" parent="1">
          <mxGeometry x="213" y="1507" width="120" height="31" as="geometry" />
        </mxCell>
        <mxCell id="Xi8EoUIkKsaDlYo5rsmm-68" style="edgeStyle=orthogonalEdgeStyle;rounded=0;orthogonalLoop=1;jettySize=auto;html=1;exitX=1;exitY=0.25;exitDx=0;exitDy=0;entryX=0;entryY=0.5;entryDx=0;entryDy=0;" edge="1" parent="1" source="Xi8EoUIkKsaDlYo5rsmm-70" target="Xi8EoUIkKsaDlYo5rsmm-74">
          <mxGeometry relative="1" as="geometry" />
        </mxCell>
        <mxCell id="Xi8EoUIkKsaDlYo5rsmm-69" style="edgeStyle=orthogonalEdgeStyle;rounded=0;orthogonalLoop=1;jettySize=auto;html=1;exitX=1;exitY=0.25;exitDx=0;exitDy=0;entryX=0;entryY=0.5;entryDx=0;entryDy=0;" edge="1" parent="1" source="Xi8EoUIkKsaDlYo5rsmm-70" target="Xi8EoUIkKsaDlYo5rsmm-72">
          <mxGeometry relative="1" as="geometry" />
        </mxCell>
        <mxCell id="Xi8EoUIkKsaDlYo5rsmm-70" value="Посмотреть описание продукта" style="rounded=1;whiteSpace=wrap;html=1;" vertex="1" parent="1">
          <mxGeometry x="374" y="1465" width="120" height="31" as="geometry" />
        </mxCell>
        <mxCell id="Xi8EoUIkKsaDlYo5rsmm-71" style="edgeStyle=orthogonalEdgeStyle;rounded=0;orthogonalLoop=1;jettySize=auto;html=1;exitX=1;exitY=0.5;exitDx=0;exitDy=0;entryX=0;entryY=0.5;entryDx=0;entryDy=0;" edge="1" parent="1" source="Xi8EoUIkKsaDlYo5rsmm-72" target="Xi8EoUIkKsaDlYo5rsmm-75">
          <mxGeometry relative="1" as="geometry" />
        </mxCell>
        <mxCell id="Xi8EoUIkKsaDlYo5rsmm-72" value="Добавить товары в корзину" style="rounded=1;whiteSpace=wrap;html=1;" vertex="1" parent="1">
          <mxGeometry x="565" y="1582" width="120" height="31" as="geometry" />
        </mxCell>
        <mxCell id="Xi8EoUIkKsaDlYo5rsmm-73" style="edgeStyle=orthogonalEdgeStyle;rounded=0;orthogonalLoop=1;jettySize=auto;html=1;exitX=1;exitY=0.5;exitDx=0;exitDy=0;entryX=0;entryY=0.5;entryDx=0;entryDy=0;" edge="1" parent="1" source="Xi8EoUIkKsaDlYo5rsmm-74" target="Xi8EoUIkKsaDlYo5rsmm-75">
          <mxGeometry relative="1" as="geometry" />
        </mxCell>
        <mxCell id="Xi8EoUIkKsaDlYo5rsmm-74" value="Обзор продуктов" style="rounded=1;whiteSpace=wrap;html=1;" vertex="1" parent="1">
          <mxGeometry x="565" y="1450" width="120" height="31" as="geometry" />
        </mxCell>
        <mxCell id="Xi8EoUIkKsaDlYo5rsmm-75" value="Оплата" style="rounded=1;whiteSpace=wrap;html=1;" vertex="1" parent="1">
          <mxGeometry x="739" y="1510.5" width="120" height="31" as="geometry" />
        </mxCell>
        <mxCell id="Xi8EoUIkKsaDlYo5rsmm-76" style="edgeStyle=orthogonalEdgeStyle;rounded=0;orthogonalLoop=1;jettySize=auto;html=1;exitX=0.5;exitY=0;exitDx=0;exitDy=0;entryX=0.564;entryY=-0.022;entryDx=0;entryDy=0;entryPerimeter=0;" edge="1" parent="1" source="Xi8EoUIkKsaDlYo5rsmm-67" target="Xi8EoUIkKsaDlYo5rsmm-74">
          <mxGeometry relative="1" as="geometry" />
        </mxCell>
        <mxCell id="Xi8EoUIkKsaDlYo5rsmm-78" style="edgeStyle=orthogonalEdgeStyle;rounded=0;orthogonalLoop=1;jettySize=auto;html=1;exitX=1;exitY=0.5;exitDx=0;exitDy=0;entryX=0;entryY=0.5;entryDx=0;entryDy=0;" edge="1" parent="1" source="Xi8EoUIkKsaDlYo5rsmm-77" target="Xi8EoUIkKsaDlYo5rsmm-74">
          <mxGeometry relative="1" as="geometry">
            <Array as="points">
              <mxPoint x="530" y="1598" />
              <mxPoint x="530" y="1466" />
            </Array>
          </mxGeometry>
        </mxCell>
        <mxCell id="Xi8EoUIkKsaDlYo5rsmm-77" value="Посмотреть продукты участников" style="rounded=1;whiteSpace=wrap;html=1;" vertex="1" parent="1">
          <mxGeometry x="220" y="1582" width="120" height="31" as="geometry" />
        </mxCell>
        <mxCell id="Xi8EoUIkKsaDlYo5rsmm-79" style="edgeStyle=orthogonalEdgeStyle;rounded=0;orthogonalLoop=1;jettySize=auto;html=1;exitX=0.5;exitY=1;exitDx=0;exitDy=0;entryX=0.442;entryY=0.032;entryDx=0;entryDy=0;entryPerimeter=0;" edge="1" parent="1" source="Xi8EoUIkKsaDlYo5rsmm-67" target="Xi8EoUIkKsaDlYo5rsmm-77">
          <mxGeometry relative="1" as="geometry" />
        </mxCell>
        <mxCell id="Xi8EoUIkKsaDlYo5rsmm-82" value="Мониторинг запасов" style="rounded=1;whiteSpace=wrap;html=1;" vertex="1" parent="1">
          <mxGeometry x="194" y="1664" width="120" height="31" as="geometry" />
        </mxCell>
        <mxCell id="Xi8EoUIkKsaDlYo5rsmm-83" value="отслеживание заказа" style="rounded=1;whiteSpace=wrap;html=1;" vertex="1" parent="1">
          <mxGeometry x="194" y="1734" width="120" height="31" as="geometry" />
        </mxCell>
        <mxCell id="Xi8EoUIkKsaDlYo5rsmm-84" value="Пользовательский анализ" style="rounded=1;whiteSpace=wrap;html=1;" vertex="1" parent="1">
          <mxGeometry x="196" y="1816" width="120" height="31" as="geometry" />
        </mxCell>
        <mxCell id="Xi8EoUIkKsaDlYo5rsmm-89" value="" style="verticalLabelPosition=bottom;verticalAlign=top;html=1;shape=mxgraph.basic.rect;fillColor2=none;strokeWidth=1;size=20;indent=5;" vertex="1" parent="1">
          <mxGeometry x="-198" y="1920" width="1215" height="507" as="geometry" />
        </mxCell>
        <mxCell id="Xi8EoUIkKsaDlYo5rsmm-93" value="логотип" style="rounded=0;whiteSpace=wrap;html=1;" vertex="1" parent="1">
          <mxGeometry x="-198" y="1920" width="80" height="39" as="geometry" />
        </mxCell>
        <mxCell id="Xi8EoUIkKsaDlYo5rsmm-94" value="Категории" style="rounded=0;whiteSpace=wrap;html=1;" vertex="1" parent="1">
          <mxGeometry x="-99" y="1934" width="106" height="38" as="geometry" />
        </mxCell>
        <mxCell id="Xi8EoUIkKsaDlYo5rsmm-96" value="поиск" style="rounded=0;whiteSpace=wrap;html=1;" vertex="1" parent="1">
          <mxGeometry x="27" y="1934.5" width="734" height="37" as="geometry" />
        </mxCell>
        <mxCell id="Xi8EoUIkKsaDlYo5rsmm-104" value="&lt;font style=&quot;font-size: 20px;&quot;&gt;реклама продукта&lt;/font&gt;" style="rounded=0;whiteSpace=wrap;html=1;" vertex="1" parent="1">
          <mxGeometry x="-180" y="2012" width="191" height="379" as="geometry" />
        </mxCell>
        <mxCell id="Xi8EoUIkKsaDlYo5rsmm-106" value="" style="shape=table;startSize=0;container=1;collapsible=0;childLayout=tableLayout;fontSize=16;" vertex="1" parent="1">
          <mxGeometry x="774" y="1934.5" width="232.83" height="36.5" as="geometry" />
        </mxCell>
        <mxCell id="Xi8EoUIkKsaDlYo5rsmm-107" value="" style="shape=tableRow;horizontal=0;startSize=0;swimlaneHead=0;swimlaneBody=0;strokeColor=inherit;top=0;left=0;bottom=0;right=0;collapsible=0;dropTarget=0;fillColor=none;points=[[0,0.5],[1,0.5]];portConstraint=eastwest;fontSize=16;" vertex="1" parent="Xi8EoUIkKsaDlYo5rsmm-106">
          <mxGeometry width="232.83" height="37" as="geometry" />
        </mxCell>
        <mxCell id="Xi8EoUIkKsaDlYo5rsmm-108" value="&lt;font style=&quot;font-size: 11px;&quot;&gt;Авторизоваться&lt;/font&gt;" style="shape=partialRectangle;html=1;whiteSpace=wrap;connectable=0;strokeColor=inherit;overflow=hidden;fillColor=none;top=0;left=0;bottom=0;right=0;pointerEvents=1;fontSize=16;" vertex="1" parent="Xi8EoUIkKsaDlYo5rsmm-107">
          <mxGeometry width="85" height="37" as="geometry">
            <mxRectangle width="85" height="37" as="alternateBounds" />
          </mxGeometry>
        </mxCell>
        <mxCell id="Xi8EoUIkKsaDlYo5rsmm-109" value="&lt;font style=&quot;font-size: 11px;&quot;&gt;Заказы&lt;/font&gt;" style="shape=partialRectangle;html=1;whiteSpace=wrap;connectable=0;strokeColor=inherit;overflow=hidden;fillColor=none;top=0;left=0;bottom=0;right=0;pointerEvents=1;fontSize=16;" vertex="1" parent="Xi8EoUIkKsaDlYo5rsmm-107">
          <mxGeometry x="85" width="42" height="37" as="geometry">
            <mxRectangle width="42" height="37" as="alternateBounds" />
          </mxGeometry>
        </mxCell>
        <mxCell id="Xi8EoUIkKsaDlYo5rsmm-110" value="&lt;font style=&quot;font-size: 11px;&quot;&gt;Избранное&lt;/font&gt;" style="shape=partialRectangle;html=1;whiteSpace=wrap;connectable=0;strokeColor=inherit;overflow=hidden;fillColor=none;top=0;left=0;bottom=0;right=0;pointerEvents=1;fontSize=16;" vertex="1" parent="Xi8EoUIkKsaDlYo5rsmm-107">
          <mxGeometry x="127" width="58" height="37" as="geometry">
            <mxRectangle width="58" height="37" as="alternateBounds" />
          </mxGeometry>
        </mxCell>
        <mxCell id="Xi8EoUIkKsaDlYo5rsmm-119" value="&lt;font style=&quot;font-size: 11px;&quot;&gt;Корзина&lt;/font&gt;" style="shape=partialRectangle;html=1;whiteSpace=wrap;connectable=0;strokeColor=inherit;overflow=hidden;fillColor=none;top=0;left=0;bottom=0;right=0;pointerEvents=1;fontSize=16;" vertex="1" parent="Xi8EoUIkKsaDlYo5rsmm-107">
          <mxGeometry x="185" width="48" height="37" as="geometry">
            <mxRectangle width="48" height="37" as="alternateBounds" />
          </mxGeometry>
        </mxCell>
        <mxCell id="Xi8EoUIkKsaDlYo5rsmm-126" value="&lt;font style=&quot;font-size: 20px;&quot;&gt;реклама продукта&lt;/font&gt;" style="rounded=0;whiteSpace=wrap;html=1;" vertex="1" parent="1">
          <mxGeometry x="808" y="2010" width="191" height="379" as="geometry" />
        </mxCell>
        <mxCell id="Xi8EoUIkKsaDlYo5rsmm-127" value="&lt;font style=&quot;font-size: 20px;&quot;&gt;ползунок&lt;/font&gt;" style="rounded=0;whiteSpace=wrap;html=1;" vertex="1" parent="1">
          <mxGeometry x="39.5" y="2012" width="740" height="377" as="geometry" />
        </mxCell>
        <mxCell id="Xi8EoUIkKsaDlYo5rsmm-128" value="" style="triangle;whiteSpace=wrap;html=1;" vertex="1" parent="1">
          <mxGeometry x="731" y="2191" width="27" height="35" as="geometry" />
        </mxCell>
        <mxCell id="Xi8EoUIkKsaDlYo5rsmm-129" value="" style="triangle;whiteSpace=wrap;html=1;rotation=-180;" vertex="1" parent="1">
          <mxGeometry x="58" y="2191" width="27" height="35" as="geometry" />
        </mxCell>
        <mxCell id="Xi8EoUIkKsaDlYo5rsmm-130" value="" style="rounded=0;whiteSpace=wrap;html=1;" vertex="1" parent="1">
          <mxGeometry x="296" y="2367" width="222" height="8" as="geometry" />
        </mxCell>
        <mxCell id="Xi8EoUIkKsaDlYo5rsmm-131" value="&lt;font style=&quot;font-size: 15px;&quot;&gt;Горячие товары&lt;/font&gt;" style="rounded=0;whiteSpace=wrap;html=1;" vertex="1" parent="1">
          <mxGeometry x="-198" y="2427" width="120" height="31" as="geometry" />
        </mxCell>
        <mxCell id="Xi8EoUIkKsaDlYo5rsmm-132" value="" style="rounded=0;whiteSpace=wrap;html=1;" vertex="1" parent="1">
          <mxGeometry x="-198" y="2458" width="1217" height="435" as="geometry" />
        </mxCell>
        <mxCell id="Xi8EoUIkKsaDlYo5rsmm-134" value="товар" style="swimlane;whiteSpace=wrap;html=1;startSize=134;" vertex="1" parent="1">
          <mxGeometry x="506" y="2471" width="124" height="184" as="geometry" />
        </mxCell>
        <mxCell id="Xi8EoUIkKsaDlYo5rsmm-135" value="цена" style="text;html=1;align=center;verticalAlign=middle;resizable=0;points=[];autosize=1;strokeColor=none;fillColor=none;" vertex="1" parent="Xi8EoUIkKsaDlYo5rsmm-134">
          <mxGeometry x="39.5" y="143" width="45" height="26" as="geometry" />
        </mxCell>
        <mxCell id="Xi8EoUIkKsaDlYo5rsmm-136" value="товар" style="swimlane;whiteSpace=wrap;html=1;startSize=134;" vertex="1" parent="1">
          <mxGeometry x="336" y="2473" width="124" height="184" as="geometry" />
        </mxCell>
        <mxCell id="Xi8EoUIkKsaDlYo5rsmm-137" value="цена" style="text;html=1;align=center;verticalAlign=middle;resizable=0;points=[];autosize=1;strokeColor=none;fillColor=none;" vertex="1" parent="Xi8EoUIkKsaDlYo5rsmm-136">
          <mxGeometry x="39.5" y="143" width="45" height="26" as="geometry" />
        </mxCell>
        <mxCell id="Xi8EoUIkKsaDlYo5rsmm-138" value="товар" style="swimlane;whiteSpace=wrap;html=1;startSize=134;" vertex="1" parent="1">
          <mxGeometry x="167" y="2471" width="124" height="184" as="geometry" />
        </mxCell>
        <mxCell id="Xi8EoUIkKsaDlYo5rsmm-139" value="цена" style="text;html=1;align=center;verticalAlign=middle;resizable=0;points=[];autosize=1;strokeColor=none;fillColor=none;" vertex="1" parent="Xi8EoUIkKsaDlYo5rsmm-138">
          <mxGeometry x="39.5" y="143" width="45" height="26" as="geometry" />
        </mxCell>
        <mxCell id="Xi8EoUIkKsaDlYo5rsmm-140" value="товар" style="swimlane;whiteSpace=wrap;html=1;startSize=134;" vertex="1" parent="1">
          <mxGeometry y="2471" width="124" height="184" as="geometry" />
        </mxCell>
        <mxCell id="Xi8EoUIkKsaDlYo5rsmm-141" value="цена" style="text;html=1;align=center;verticalAlign=middle;resizable=0;points=[];autosize=1;strokeColor=none;fillColor=none;" vertex="1" parent="Xi8EoUIkKsaDlYo5rsmm-140">
          <mxGeometry x="39.5" y="143" width="45" height="26" as="geometry" />
        </mxCell>
        <mxCell id="Xi8EoUIkKsaDlYo5rsmm-142" value="товар" style="swimlane;whiteSpace=wrap;html=1;startSize=134;" vertex="1" parent="1">
          <mxGeometry x="-166" y="2471" width="124" height="184" as="geometry" />
        </mxCell>
        <mxCell id="Xi8EoUIkKsaDlYo5rsmm-143" value="цена" style="text;html=1;align=center;verticalAlign=middle;resizable=0;points=[];autosize=1;strokeColor=none;fillColor=none;" vertex="1" parent="Xi8EoUIkKsaDlYo5rsmm-142">
          <mxGeometry x="39.5" y="143" width="45" height="26" as="geometry" />
        </mxCell>
        <mxCell id="Xi8EoUIkKsaDlYo5rsmm-144" value="товар" style="swimlane;whiteSpace=wrap;html=1;startSize=134;" vertex="1" parent="1">
          <mxGeometry x="-166" y="2686" width="124" height="184" as="geometry" />
        </mxCell>
        <mxCell id="Xi8EoUIkKsaDlYo5rsmm-145" value="цена" style="text;html=1;align=center;verticalAlign=middle;resizable=0;points=[];autosize=1;strokeColor=none;fillColor=none;" vertex="1" parent="Xi8EoUIkKsaDlYo5rsmm-144">
          <mxGeometry x="39.5" y="143" width="45" height="26" as="geometry" />
        </mxCell>
        <mxCell id="Xi8EoUIkKsaDlYo5rsmm-146" value="товар" style="swimlane;whiteSpace=wrap;html=1;startSize=134;" vertex="1" parent="1">
          <mxGeometry y="2689" width="124" height="184" as="geometry" />
        </mxCell>
        <mxCell id="Xi8EoUIkKsaDlYo5rsmm-147" value="цена" style="text;html=1;align=center;verticalAlign=middle;resizable=0;points=[];autosize=1;strokeColor=none;fillColor=none;" vertex="1" parent="Xi8EoUIkKsaDlYo5rsmm-146">
          <mxGeometry x="39.5" y="143" width="45" height="26" as="geometry" />
        </mxCell>
        <mxCell id="Xi8EoUIkKsaDlYo5rsmm-148" value="товар" style="swimlane;whiteSpace=wrap;html=1;startSize=134;" vertex="1" parent="1">
          <mxGeometry x="851" y="2471" width="124" height="184" as="geometry" />
        </mxCell>
        <mxCell id="Xi8EoUIkKsaDlYo5rsmm-149" value="цена" style="text;html=1;align=center;verticalAlign=middle;resizable=0;points=[];autosize=1;strokeColor=none;fillColor=none;" vertex="1" parent="Xi8EoUIkKsaDlYo5rsmm-148">
          <mxGeometry x="39.5" y="143" width="45" height="26" as="geometry" />
        </mxCell>
        <mxCell id="Xi8EoUIkKsaDlYo5rsmm-150" value="товар" style="swimlane;whiteSpace=wrap;html=1;startSize=134;" vertex="1" parent="1">
          <mxGeometry x="682.5" y="2471" width="124" height="184" as="geometry" />
        </mxCell>
        <mxCell id="Xi8EoUIkKsaDlYo5rsmm-151" value="цена" style="text;html=1;align=center;verticalAlign=middle;resizable=0;points=[];autosize=1;strokeColor=none;fillColor=none;" vertex="1" parent="Xi8EoUIkKsaDlYo5rsmm-150">
          <mxGeometry x="39.5" y="143" width="45" height="26" as="geometry" />
        </mxCell>
        <mxCell id="Xi8EoUIkKsaDlYo5rsmm-155" value="товар" style="swimlane;whiteSpace=wrap;html=1;startSize=134;" vertex="1" parent="1">
          <mxGeometry x="855" y="2686" width="124" height="184" as="geometry" />
        </mxCell>
        <mxCell id="Xi8EoUIkKsaDlYo5rsmm-156" value="цена" style="text;html=1;align=center;verticalAlign=middle;resizable=0;points=[];autosize=1;strokeColor=none;fillColor=none;" vertex="1" parent="Xi8EoUIkKsaDlYo5rsmm-155">
          <mxGeometry x="39.5" y="143" width="45" height="26" as="geometry" />
        </mxCell>
        <mxCell id="Xi8EoUIkKsaDlYo5rsmm-157" value="товар" style="swimlane;whiteSpace=wrap;html=1;startSize=134;" vertex="1" parent="1">
          <mxGeometry x="682.5" y="2686" width="124" height="184" as="geometry" />
        </mxCell>
        <mxCell id="Xi8EoUIkKsaDlYo5rsmm-158" value="цена" style="text;html=1;align=center;verticalAlign=middle;resizable=0;points=[];autosize=1;strokeColor=none;fillColor=none;" vertex="1" parent="Xi8EoUIkKsaDlYo5rsmm-157">
          <mxGeometry x="39.5" y="143" width="45" height="26" as="geometry" />
        </mxCell>
        <mxCell id="Xi8EoUIkKsaDlYo5rsmm-159" value="товар" style="swimlane;whiteSpace=wrap;html=1;startSize=134;" vertex="1" parent="1">
          <mxGeometry x="506" y="2689" width="124" height="184" as="geometry" />
        </mxCell>
        <mxCell id="Xi8EoUIkKsaDlYo5rsmm-160" value="цена" style="text;html=1;align=center;verticalAlign=middle;resizable=0;points=[];autosize=1;strokeColor=none;fillColor=none;" vertex="1" parent="Xi8EoUIkKsaDlYo5rsmm-159">
          <mxGeometry x="39.5" y="143" width="45" height="26" as="geometry" />
        </mxCell>
        <mxCell id="Xi8EoUIkKsaDlYo5rsmm-161" value="товар" style="swimlane;whiteSpace=wrap;html=1;startSize=134;" vertex="1" parent="1">
          <mxGeometry x="340" y="2689" width="124" height="184" as="geometry" />
        </mxCell>
        <mxCell id="Xi8EoUIkKsaDlYo5rsmm-162" value="цена" style="text;html=1;align=center;verticalAlign=middle;resizable=0;points=[];autosize=1;strokeColor=none;fillColor=none;" vertex="1" parent="Xi8EoUIkKsaDlYo5rsmm-161">
          <mxGeometry x="39.5" y="143" width="45" height="26" as="geometry" />
        </mxCell>
        <mxCell id="Xi8EoUIkKsaDlYo5rsmm-163" value="товар" style="swimlane;whiteSpace=wrap;html=1;startSize=134;" vertex="1" parent="1">
          <mxGeometry x="167" y="2686" width="124" height="184" as="geometry" />
        </mxCell>
        <mxCell id="Xi8EoUIkKsaDlYo5rsmm-164" value="цена" style="text;html=1;align=center;verticalAlign=middle;resizable=0;points=[];autosize=1;strokeColor=none;fillColor=none;" vertex="1" parent="Xi8EoUIkKsaDlYo5rsmm-163">
          <mxGeometry x="39.5" y="143" width="45" height="26" as="geometry" />
        </mxCell>
      </root>
    </mxGraphModel>
  </diagram>
</mxfile>
